<?xml version="1.0" encoding="utf-8"?>
<!-- Generated by Mocodo 4.2.8 -->
<svg width="1013" height="212" viewBox="0 0 1013 212" xmlns="http://www.w3.org/2000/svg">
<rect x="0" y="0" width="1013" height="212" fill="#ffffbf" stroke="none" stroke-width="0"/>

<!-- Association EST_COMPATIBLE_AVEC -->
<g>
	<line x1="496" y1="60" x2="295" y2="60" stroke="#66bd63" stroke-width="2"/>
	<line x1="295" y1="161" x2="295" y2="60" stroke="#66bd63" stroke-width="2"/>
	<g>
		<path d="M363 35 a14 14 90 0 1 14 14 V60 h-164 V49 a14 14 90 0 1 14 -14" fill="#a6d96a" stroke="#a6d96a" stroke-width="0"/>
		<path d="M377 60 v11 a14 14 90 0 1 -14 14 H227 a14 14 90 0 1 -14 -14 V60 H164" fill="#d9ef8b" stroke="#d9ef8b" stroke-width="0"/>
		<rect x="213" y="35" width="164" height="50" fill="none" rx="14" stroke="#66bd63" stroke-width="2"/>
		<line x1="213" y1="60" x2="377" y2="60" stroke="#66bd63" stroke-width="1"/>
		<text x="220" y="52.75" fill="#000000" font-family="Verdana" font-size="12">EST_COMPATIBLE_AVEC</text>
	</g>
	<text x="414" y="77" fill="#d73027" font-family="Verdana" font-size="12">0,N</text>
	<text x="300" y="119" fill="#d73027" font-family="Verdana" font-size="12">0,N</text>
</g>

<!-- Association CONCERNE -->
<g>
	<line x1="795" y1="60" x2="637" y2="60" stroke="#66bd63" stroke-width="2"/>
	<line x1="496" y1="60" x2="637" y2="60" stroke="#66bd63" stroke-width="2"/>
	<g>
		<path d="M665 35 a14 14 90 0 1 14 14 V60 h-84 V49 a14 14 90 0 1 14 -14" fill="#a6d96a" stroke="#a6d96a" stroke-width="0"/>
		<path d="M679 60 v11 a14 14 90 0 1 -14 14 H609 a14 14 90 0 1 -14 -14 V60 H84" fill="#d9ef8b" stroke="#d9ef8b" stroke-width="0"/>
		<rect x="595" y="35" width="84" height="50" fill="none" rx="14" stroke="#66bd63" stroke-width="2"/>
		<line x1="595" y1="60" x2="679" y2="60" stroke="#66bd63" stroke-width="1"/>
		<text x="603" y="52.75" fill="#000000" font-family="Verdana" font-size="12">CONCERNE</text>
	</g>
	<text x="708" y="77" fill="#d73027" font-family="Verdana" font-size="12">0,N</text>
	<text x="556" y="77" fill="#d73027" font-family="Verdana" font-size="12">1,1</text>
</g>

<!-- Association RESOUT -->
<g>
	<line x1="951" y1="161" x2="951" y2="60" stroke="#66bd63" stroke-width="2"/>
	<line x1="795" y1="60" x2="951" y2="60" stroke="#66bd63" stroke-width="2"/>
	<g>
		<path d="M970 35 a14 14 90 0 1 14 14 V60 h-66 V49 a14 14 90 0 1 14 -14" fill="#a6d96a" stroke="#a6d96a" stroke-width="0"/>
		<path d="M984 60 v11 a14 14 90 0 1 -14 14 H932 a14 14 90 0 1 -14 -14 V60 H66" fill="#d9ef8b" stroke="#d9ef8b" stroke-width="0"/>
		<rect x="918" y="35" width="66" height="50" fill="none" rx="14" stroke="#66bd63" stroke-width="2"/>
		<line x1="918" y1="60" x2="984" y2="60" stroke="#66bd63" stroke-width="1"/>
		<text x="926" y="52.75" fill="#000000" font-family="Verdana" font-size="12">RÉSOUT</text>
	</g>
	<text x="956" y="111" fill="#d73027" font-family="Verdana" font-size="12">0,N</text>
	<text x="860" y="77" fill="#d73027" font-family="Verdana" font-size="12">1,1</text>
</g>

<!-- Association SUPPORTE_PAR -->
<g>
	<line x1="92" y1="60" x2="92" y2="161" stroke="#66bd63" stroke-width="2"/>
	<line x1="295" y1="161" x2="92" y2="161" stroke="#66bd63" stroke-width="2"/>
	<g>
		<path d="M134 136 a14 14 90 0 1 14 14 V161 h-112 V150 a14 14 90 0 1 14 -14" fill="#a6d96a" stroke="#a6d96a" stroke-width="0"/>
		<path d="M148 161 v11 a14 14 90 0 1 -14 14 H50 a14 14 90 0 1 -14 -14 V161 H112" fill="#d9ef8b" stroke="#d9ef8b" stroke-width="0"/>
		<rect x="36" y="136" width="112" height="50" fill="none" rx="14" stroke="#66bd63" stroke-width="2"/>
		<line x1="36" y1="161" x2="148" y2="161" stroke="#66bd63" stroke-width="1"/>
		<text x="44" y="153.75" fill="#000000" font-family="Verdana" font-size="12">SUPPORTÉ_PAR</text>
	</g>
	<text x="97" y="111" fill="#d73027" font-family="Verdana" font-size="12">0,N</text>
	<text x="153" y="178" fill="#d73027" font-family="Verdana" font-size="12">0,N</text>
</g>

<!-- Association APPARTIENT_A -->
<g>
	<line x1="496" y1="60" x2="496" y2="161" stroke="#66bd63" stroke-width="2"/>
	<line x1="637" y1="161" x2="496" y2="161" stroke="#66bd63" stroke-width="2"/>
	<g>
		<path d="M536 136 a14 14 90 0 1 14 14 V161 h-108 V150 a14 14 90 0 1 14 -14" fill="#a6d96a" stroke="#a6d96a" stroke-width="0"/>
		<path d="M550 161 v11 a14 14 90 0 1 -14 14 H456 a14 14 90 0 1 -14 -14 V161 H108" fill="#d9ef8b" stroke="#d9ef8b" stroke-width="0"/>
		<rect x="442" y="136" width="108" height="50" fill="none" rx="14" stroke="#66bd63" stroke-width="2"/>
		<line x1="442" y1="161" x2="550" y2="161" stroke="#66bd63" stroke-width="1"/>
		<text x="450" y="153.75" fill="#000000" font-family="Verdana" font-size="12">APPARTIENT_À</text>
	</g>
	<text x="501" y="111" fill="#d73027" font-family="Verdana" font-size="12">0,N</text>
	<text x="556" y="178" fill="#d73027" font-family="Verdana" font-size="12">1,1</text>
</g>

<!-- Association EST_SIGNALE_POUR -->
<g>
	<line x1="795" y1="60" x2="795" y2="161" stroke="#66bd63" stroke-width="2"/>
	<line x1="637" y1="161" x2="795" y2="161" stroke="#66bd63" stroke-width="2"/>
	<g>
		<path d="M852 136 a14 14 90 0 1 14 14 V161 h-142 V150 a14 14 90 0 1 14 -14" fill="#a6d96a" stroke="#a6d96a" stroke-width="0"/>
		<path d="M866 161 v11 a14 14 90 0 1 -14 14 H738 a14 14 90 0 1 -14 -14 V161 H142" fill="#d9ef8b" stroke="#d9ef8b" stroke-width="0"/>
		<rect x="724" y="136" width="142" height="50" fill="none" rx="14" stroke="#66bd63" stroke-width="2"/>
		<line x1="724" y1="161" x2="866" y2="161" stroke="#66bd63" stroke-width="1"/>
		<text x="732" y="153.75" fill="#000000" font-family="Verdana" font-size="12">EST_SIGNALÉ_POUR</text>
	</g>
	<text x="800" y="128" fill="#d73027" font-family="Verdana" font-size="12">0,N</text>
	<text x="697" y="178" fill="#d73027" font-family="Verdana" font-size="12">1,1</text>
</g>

<!-- Entity SYSTEME_EXPLOITATION -->
<g>
	<g>
		<rect x="9" y="26" width="166" height="25" fill="#fdae61" stroke="none" stroke-width="0" opacity="1"/>
		<rect x="9" y="51" width="166" height="43" fill="#fee08b" stroke="none" stroke-width="0" opacity="1"/>
		<rect x="9" y="26" width="166" height="68" fill="none" stroke="#f46d43" stroke-width="2" opacity="1"/>
		<line x1="9" y1="51" x2="175" y2="51" stroke="#f46d43" stroke-width="1"/>
	</g>
	<text x="14" y="43.75" fill="#000000" font-family="Verdana" font-size="12">SYSTEME_EXPLOITATION</text>
	<text x="14" y="68.8" fill="#000000" font-family="Verdana" font-size="12">id</text>
	<line x1="14" y1="71" x2="26" y2="71" stroke="#000000" stroke-width="1"/>
	<text x="14" y="85.8" fill="#000000" font-family="Verdana" font-size="12">nom</text>
</g>

<!-- Entity VERSION -->
<g>
	<g>
		<rect x="441" y="26" width="110" height="25" fill="#fdae61" stroke="none" stroke-width="0" opacity="1"/>
		<rect x="441" y="51" width="110" height="43" fill="#fee08b" stroke="none" stroke-width="0" opacity="1"/>
		<rect x="441" y="26" width="110" height="68" fill="none" stroke="#f46d43" stroke-width="2" opacity="1"/>
		<line x1="441" y1="51" x2="551" y2="51" stroke="#f46d43" stroke-width="1"/>
	</g>
	<text x="468" y="43.75" fill="#000000" font-family="Verdana" font-size="12">VERSION</text>
	<text x="446" y="68.8" fill="#000000" font-family="Verdana" font-size="12">id</text>
	<line x1="446" y1="71" x2="458" y2="71" stroke="#000000" stroke-width="1"/>
	<text x="446" y="85.8" fill="#000000" font-family="Verdana" font-size="12">numero_version</text>
</g>

<!-- Entity PROBLEME -->
<g>
	<g>
		<rect x="735" y="9" width="120" height="25" fill="#fdae61" stroke="none" stroke-width="0" opacity="1"/>
		<rect x="735" y="34" width="120" height="77" fill="#fee08b" stroke="none" stroke-width="0" opacity="1"/>
		<rect x="735" y="9" width="120" height="102" fill="none" stroke="#f46d43" stroke-width="2" opacity="1"/>
		<line x1="735" y1="34" x2="855" y2="34" stroke="#f46d43" stroke-width="1"/>
	</g>
	<text x="762" y="26.75" fill="#000000" font-family="Verdana" font-size="12">PROBLEME</text>
	<text x="740" y="51.8" fill="#000000" font-family="Verdana" font-size="12">id</text>
	<line x1="740" y1="54" x2="752" y2="54" stroke="#000000" stroke-width="1"/>
	<text x="740" y="68.8" fill="#000000" font-family="Verdana" font-size="12">description</text>
	<text x="740" y="85.8" fill="#000000" font-family="Verdana" font-size="12">date_signalement</text>
	<text x="740" y="102.8" fill="#000000" font-family="Verdana" font-size="12">statut</text>
</g>

<!-- Entity VERSION_SYSTEME_EXPLOITATION -->
<g>
	<g>
		<rect x="180" y="127" width="230" height="25" fill="#fdae61" stroke="none" stroke-width="0" opacity="1"/>
		<rect x="180" y="152" width="230" height="43" fill="#fee08b" stroke="none" stroke-width="0" opacity="1"/>
		<rect x="180" y="127" width="230" height="68" fill="none" stroke="#f46d43" stroke-width="2" opacity="1"/>
		<line x1="180" y1="152" x2="410" y2="152" stroke="#f46d43" stroke-width="1"/>
	</g>
	<text x="186" y="144.75" fill="#000000" font-family="Verdana" font-size="12">VERSION_SYSTEME_EXPLOITATION</text>
	<text x="185" y="169.8" fill="#000000" font-family="Verdana" font-size="12">version_id</text>
	<line x1="185" y1="172" x2="248" y2="172" stroke="#000000" stroke-width="1"/>
	<text x="185" y="186.8" fill="#000000" font-family="Verdana" font-size="12">systeme_exploitation_id</text>
</g>

<!-- Entity PRODUIT -->
<g>
	<g>
		<rect x="582" y="119" width="110" height="25" fill="#fdae61" stroke="none" stroke-width="0" opacity="1"/>
		<rect x="582" y="144" width="110" height="59" fill="#fee08b" stroke="none" stroke-width="0" opacity="1"/>
		<rect x="582" y="119" width="110" height="84" fill="none" stroke="#f46d43" stroke-width="2" opacity="1"/>
		<line x1="582" y1="144" x2="692" y2="144" stroke="#f46d43" stroke-width="1"/>
	</g>
	<text x="609" y="136.75" fill="#000000" font-family="Verdana" font-size="12">PRODUIT</text>
	<text x="587" y="161.8" fill="#000000" font-family="Verdana" font-size="12">id</text>
	<line x1="587" y1="164" x2="599" y2="164" stroke="#000000" stroke-width="1"/>
	<text x="587" y="178.8" fill="#000000" font-family="Verdana" font-size="12">nom</text>
	<text x="587" y="195.8" fill="#000000" font-family="Verdana" font-size="12">version_actuelle</text>
</g>

<!-- Entity RESOLUTION -->
<g>
	<g>
		<rect x="898" y="119" width="106" height="25" fill="#fdae61" stroke="none" stroke-width="0" opacity="1"/>
		<rect x="898" y="144" width="106" height="59" fill="#fee08b" stroke="none" stroke-width="0" opacity="1"/>
		<rect x="898" y="119" width="106" height="84" fill="none" stroke="#f46d43" stroke-width="2" opacity="1"/>
		<line x1="898" y1="144" x2="1004" y2="144" stroke="#f46d43" stroke-width="1"/>
	</g>
	<text x="911" y="136.75" fill="#000000" font-family="Verdana" font-size="12">RESOLUTION</text>
	<text x="903" y="161.8" fill="#000000" font-family="Verdana" font-size="12">id</text>
	<line x1="903" y1="164" x2="915" y2="164" stroke="#000000" stroke-width="1"/>
	<text x="903" y="178.8" fill="#000000" font-family="Verdana" font-size="12">description</text>
	<text x="903" y="195.8" fill="#000000" font-family="Verdana" font-size="12">date_resolution</text>
</g>
</svg>