<?xml version="1.0" encoding="utf-8"?>
<!-- Generated by Mocodo 4.2.8 -->
<svg width="1015" height="212" viewBox="0 0 1015 212" xmlns="http://www.w3.org/2000/svg">
<rect x="0" y="0" width="1015" height="212" fill="#ffffbf" stroke="none" stroke-width="0"/>

<!-- Association RESOUT -->
<g>
	<line x1="62" y1="161" x2="62" y2="60" stroke="#66bd63" stroke-width="2"/>
	<line x1="218" y1="60" x2="62" y2="60" stroke="#66bd63" stroke-width="2"/>
	<g>
		<path d="M81 35 a14 14 90 0 1 14 14 V60 h-66 V49 a14 14 90 0 1 14 -14" fill="#a6d96a" stroke="#a6d96a" stroke-width="0"/>
		<path d="M95 60 v11 a14 14 90 0 1 -14 14 H43 a14 14 90 0 1 -14 -14 V60 H66" fill="#d9ef8b" stroke="#d9ef8b" stroke-width="0"/>
		<rect x="29" y="35" width="66" height="50" fill="none" rx="14" stroke="#66bd63" stroke-width="2"/>
		<line x1="29" y1="60" x2="95" y2="60" stroke="#66bd63" stroke-width="1"/>
		<text x="37" y="52.75" fill="#000000" font-family="Verdana" font-size="12">RÉSOUT</text>
	</g>
	<text x="67" y="111" fill="#d73027" font-family="Verdana" font-size="12">0,1</text>
	<text x="132" y="77" fill="#d73027" font-family="Verdana" font-size="12">1,1</text>
</g>

<!-- Association SUPPORTE_PAR -->
<g>
	<line x1="517" y1="60" x2="688" y2="60" stroke="#66bd63" stroke-width="2"/>
	<line x1="891" y1="60" x2="688" y2="60" stroke="#66bd63" stroke-width="2"/>
	<g>
		<path d="M730 35 a14 14 90 0 1 14 14 V60 h-112 V49 a14 14 90 0 1 14 -14" fill="#a6d96a" stroke="#a6d96a" stroke-width="0"/>
		<path d="M744 60 v11 a14 14 90 0 1 -14 14 H646 a14 14 90 0 1 -14 -14 V60 H112" fill="#d9ef8b" stroke="#d9ef8b" stroke-width="0"/>
		<rect x="632" y="35" width="112" height="50" fill="none" rx="14" stroke="#66bd63" stroke-width="2"/>
		<line x1="632" y1="60" x2="744" y2="60" stroke="#66bd63" stroke-width="1"/>
		<text x="640" y="52.75" fill="#000000" font-family="Verdana" font-size="12">SUPPORTÉ_PAR</text>
	</g>
	<text x="605" y="77" fill="#d73027" font-family="Verdana" font-size="12">1,1</text>
	<text x="749" y="77" fill="#d73027" font-family="Verdana" font-size="12">0,N</text>
</g>

<!-- Association EST_SIGNALE_POUR -->
<g>
	<line x1="218" y1="60" x2="218" y2="161" stroke="#66bd63" stroke-width="2"/>
	<line x1="376" y1="161" x2="218" y2="161" stroke="#66bd63" stroke-width="2"/>
	<g>
		<path d="M275 136 a14 14 90 0 1 14 14 V161 h-142 V150 a14 14 90 0 1 14 -14" fill="#a6d96a" stroke="#a6d96a" stroke-width="0"/>
		<path d="M289 161 v11 a14 14 90 0 1 -14 14 H161 a14 14 90 0 1 -14 -14 V161 H142" fill="#d9ef8b" stroke="#d9ef8b" stroke-width="0"/>
		<rect x="147" y="136" width="142" height="50" fill="none" rx="14" stroke="#66bd63" stroke-width="2"/>
		<line x1="147" y1="161" x2="289" y2="161" stroke="#66bd63" stroke-width="1"/>
		<text x="155" y="153.75" fill="#000000" font-family="Verdana" font-size="12">EST_SIGNALÉ_POUR</text>
	</g>
	<text x="223" y="128" fill="#d73027" font-family="Verdana" font-size="12">0,N</text>
	<text x="295" y="178" fill="#d73027" font-family="Verdana" font-size="12">1,1</text>
</g>

<!-- Association APPARTIENT_A -->
<g>
	<line x1="688" y1="161" x2="517" y2="161" stroke="#66bd63" stroke-width="2"/>
	<line x1="376" y1="161" x2="517" y2="161" stroke="#66bd63" stroke-width="2"/>
	<g>
		<path d="M557 136 a14 14 90 0 1 14 14 V161 h-108 V150 a14 14 90 0 1 14 -14" fill="#a6d96a" stroke="#a6d96a" stroke-width="0"/>
		<path d="M571 161 v11 a14 14 90 0 1 -14 14 H477 a14 14 90 0 1 -14 -14 V161 H108" fill="#d9ef8b" stroke="#d9ef8b" stroke-width="0"/>
		<rect x="463" y="136" width="108" height="50" fill="none" rx="14" stroke="#66bd63" stroke-width="2"/>
		<line x1="463" y1="161" x2="571" y2="161" stroke="#66bd63" stroke-width="1"/>
		<text x="471" y="153.75" fill="#000000" font-family="Verdana" font-size="12">APPARTIENT_À</text>
	</g>
	<text x="606" y="178" fill="#d73027" font-family="Verdana" font-size="12">0,N</text>
	<text x="436" y="178" fill="#d73027" font-family="Verdana" font-size="12">1,1</text>
</g>

<!-- Association EST_COMPATIBLE_AVEC -->
<g>
	<line x1="688" y1="161" x2="891" y2="161" stroke="#66bd63" stroke-width="2"/>
	<line x1="891" y1="60" x2="891" y2="161" stroke="#66bd63" stroke-width="2"/>
	<g>
		<path d="M959 136 a14 14 90 0 1 14 14 V161 h-164 V150 a14 14 90 0 1 14 -14" fill="#a6d96a" stroke="#a6d96a" stroke-width="0"/>
		<path d="M973 161 v11 a14 14 90 0 1 -14 14 H823 a14 14 90 0 1 -14 -14 V161 H164" fill="#d9ef8b" stroke="#d9ef8b" stroke-width="0"/>
		<rect x="809" y="136" width="164" height="50" fill="none" rx="14" stroke="#66bd63" stroke-width="2"/>
		<line x1="809" y1="161" x2="973" y2="161" stroke="#66bd63" stroke-width="1"/>
		<text x="816" y="153.75" fill="#000000" font-family="Verdana" font-size="12">EST_COMPATIBLE_AVEC</text>
	</g>
	<text x="748" y="178" fill="#d73027" font-family="Verdana" font-size="12">1,1</text>
	<text x="896" y="111" fill="#d73027" font-family="Verdana" font-size="12">0,N</text>
</g>

<!-- Entity PROBLEME -->
<g>
	<g>
		<rect x="158" y="9" width="120" height="25" fill="#fdae61" stroke="none" stroke-width="0" opacity="1"/>
		<rect x="158" y="34" width="120" height="77" fill="#fee08b" stroke="none" stroke-width="0" opacity="1"/>
		<rect x="158" y="9" width="120" height="102" fill="none" stroke="#f46d43" stroke-width="2" opacity="1"/>
		<line x1="158" y1="34" x2="278" y2="34" stroke="#f46d43" stroke-width="1"/>
	</g>
	<text x="185" y="26.75" fill="#000000" font-family="Verdana" font-size="12">PROBLEME</text>
	<text x="163" y="51.8" fill="#000000" font-family="Verdana" font-size="12">id</text>
	<line x1="163" y1="54" x2="175" y2="54" stroke="#000000" stroke-width="1"/>
	<text x="163" y="68.8" fill="#000000" font-family="Verdana" font-size="12">description</text>
	<text x="163" y="85.8" fill="#000000" font-family="Verdana" font-size="12">date_signalement</text>
	<text x="163" y="102.8" fill="#000000" font-family="Verdana" font-size="12">statut</text>
</g>

<!-- Entity SYSTEME_EXPLOITATION -->
<g>
	<g>
		<rect x="434" y="26" width="166" height="25" fill="#fdae61" stroke="none" stroke-width="0" opacity="1"/>
		<rect x="434" y="51" width="166" height="43" fill="#fee08b" stroke="none" stroke-width="0" opacity="1"/>
		<rect x="434" y="26" width="166" height="68" fill="none" stroke="#f46d43" stroke-width="2" opacity="1"/>
		<line x1="434" y1="51" x2="600" y2="51" stroke="#f46d43" stroke-width="1"/>
	</g>
	<text x="439" y="43.75" fill="#000000" font-family="Verdana" font-size="12">SYSTEME_EXPLOITATION</text>
	<text x="439" y="68.8" fill="#000000" font-family="Verdana" font-size="12">id</text>
	<line x1="439" y1="71" x2="451" y2="71" stroke="#000000" stroke-width="1"/>
	<text x="439" y="85.8" fill="#000000" font-family="Verdana" font-size="12">nom</text>
</g>

<!-- Entity VERSION_SYSTEME_EXPLOITATION -->
<g>
	<g>
		<rect x="776" y="26" width="230" height="25" fill="#fdae61" stroke="none" stroke-width="0" opacity="1"/>
		<rect x="776" y="51" width="230" height="43" fill="#fee08b" stroke="none" stroke-width="0" opacity="1"/>
		<rect x="776" y="26" width="230" height="68" fill="none" stroke="#f46d43" stroke-width="2" opacity="1"/>
		<line x1="776" y1="51" x2="1006" y2="51" stroke="#f46d43" stroke-width="1"/>
	</g>
	<text x="782" y="43.75" fill="#000000" font-family="Verdana" font-size="12">VERSION_SYSTEME_EXPLOITATION</text>
	<text x="781" y="68.8" fill="#000000" font-family="Verdana" font-size="12">version_id</text>
	<line x1="781" y1="71" x2="844" y2="71" stroke="#000000" stroke-width="1"/>
	<text x="781" y="85.8" fill="#000000" font-family="Verdana" font-size="12">systeme_exploitation_id</text>
</g>

<!-- Entity RESOLUTION -->
<g>
	<g>
		<rect x="9" y="119" width="106" height="25" fill="#fdae61" stroke="none" stroke-width="0" opacity="1"/>
		<rect x="9" y="144" width="106" height="59" fill="#fee08b" stroke="none" stroke-width="0" opacity="1"/>
		<rect x="9" y="119" width="106" height="84" fill="none" stroke="#f46d43" stroke-width="2" opacity="1"/>
		<line x1="9" y1="144" x2="115" y2="144" stroke="#f46d43" stroke-width="1"/>
	</g>
	<text x="22" y="136.75" fill="#000000" font-family="Verdana" font-size="12">RESOLUTION</text>
	<text x="14" y="161.8" fill="#000000" font-family="Verdana" font-size="12">id</text>
	<line x1="14" y1="164" x2="26" y2="164" stroke="#000000" stroke-width="1"/>
	<text x="14" y="178.8" fill="#000000" font-family="Verdana" font-size="12">description</text>
	<text x="14" y="195.8" fill="#000000" font-family="Verdana" font-size="12">date_resolution</text>
</g>

<!-- Entity PRODUIT -->
<g>
	<g>
		<rect x="321" y="119" width="110" height="25" fill="#fdae61" stroke="none" stroke-width="0" opacity="1"/>
		<rect x="321" y="144" width="110" height="59" fill="#fee08b" stroke="none" stroke-width="0" opacity="1"/>
		<rect x="321" y="119" width="110" height="84" fill="none" stroke="#f46d43" stroke-width="2" opacity="1"/>
		<line x1="321" y1="144" x2="431" y2="144" stroke="#f46d43" stroke-width="1"/>
	</g>
	<text x="348" y="136.75" fill="#000000" font-family="Verdana" font-size="12">PRODUIT</text>
	<text x="326" y="161.8" fill="#000000" font-family="Verdana" font-size="12">id</text>
	<line x1="326" y1="164" x2="338" y2="164" stroke="#000000" stroke-width="1"/>
	<text x="326" y="178.8" fill="#000000" font-family="Verdana" font-size="12">nom</text>
	<text x="326" y="195.8" fill="#000000" font-family="Verdana" font-size="12">version_actuelle</text>
</g>

<!-- Entity VERSION -->
<g>
	<g>
		<rect x="633" y="127" width="110" height="25" fill="#fdae61" stroke="none" stroke-width="0" opacity="1"/>
		<rect x="633" y="152" width="110" height="43" fill="#fee08b" stroke="none" stroke-width="0" opacity="1"/>
		<rect x="633" y="127" width="110" height="68" fill="none" stroke="#f46d43" stroke-width="2" opacity="1"/>
		<line x1="633" y1="152" x2="743" y2="152" stroke="#f46d43" stroke-width="1"/>
	</g>
	<text x="660" y="144.75" fill="#000000" font-family="Verdana" font-size="12">VERSION</text>
	<text x="638" y="169.8" fill="#000000" font-family="Verdana" font-size="12">id</text>
	<line x1="638" y1="172" x2="650" y2="172" stroke="#000000" stroke-width="1"/>
	<text x="638" y="186.8" fill="#000000" font-family="Verdana" font-size="12">numero_version</text>
</g>
</svg>